<svg width="24" height="26" viewBox="0 0 24 26" fill="none" xmlns="http://www.w3.org/2000/svg">
<path d="M23.0076 14.6933C23.7641 8.32514 22.6441 4.30479 20.6239 2.48639L20.625 2.48534C17.3643 -0.620002 6.35247 -1.07962 2.45151 2.62481C0.699675 4.43687 0.0826222 7.09632 0.0150001 10.3887C-0.0526221 13.6821 -0.132924 19.8516 5.61602 21.5252H5.6213L5.61602 24.0811C5.61602 24.0811 5.57692 25.1166 6.23835 25.3247C6.99488 25.5699 7.33721 25.0891 9.69025 22.2786C13.625 22.6198 16.6469 21.838 16.9903 21.7238C17.7848 21.4576 22.2807 20.8627 23.0076 14.6933ZM10.078 20.4802C10.078 20.4802 7.58763 23.5856 6.81314 24.3918C6.55956 24.6538 6.28167 24.6295 6.2859 24.1096C6.2859 23.7684 6.30492 19.8664 6.30492 19.8664C1.43084 18.4695 1.71823 13.2161 1.77106 10.4679C1.82389 7.71866 2.32683 5.46705 3.81029 3.95083C7.23261 0.741951 16.8867 1.45938 19.3465 3.77121C22.3536 6.43701 21.2832 13.9684 21.2896 14.2252C20.6715 19.375 17.0283 19.7015 16.3584 19.9245C16.0721 20.0196 13.4148 20.7032 10.078 20.4802Z" fill="#FCE2A7"/>
<path d="M11.4555 4.55371C11.0487 4.55371 11.0487 5.18767 11.4555 5.19295C14.6115 5.21725 17.2108 7.41709 17.2393 11.4522C17.2393 11.878 17.8627 11.8728 17.8574 11.4469H17.8563C17.8225 7.09905 14.9845 4.57801 11.4555 4.55371Z" fill="#FCE2A7"/>
<path d="M15.6047 10.7838C15.5952 11.2044 16.2175 11.2244 16.2228 10.7986C16.2746 8.40121 14.7964 6.42643 12.0186 6.21828C11.6118 6.1887 11.5696 6.82794 11.9753 6.85752C14.3843 7.04031 15.6533 8.68438 15.6047 10.7838Z" fill="#FCE2A7"/>
<path d="M14.9431 13.5105C14.4211 13.2084 13.8897 13.3964 13.6699 13.6933L13.2103 14.2882C12.9768 14.5904 12.5404 14.5502 12.5404 14.5502C9.35581 13.7081 8.50419 10.3756 8.50419 10.3756C8.50419 10.3756 8.4651 9.92445 8.75672 9.68249L9.3315 9.20703C9.6189 8.9788 9.80063 8.42937 9.50796 7.88945C8.72607 6.47678 8.20095 5.98969 7.93363 5.61565C7.65257 5.26381 7.22993 5.18456 6.79039 5.4223H6.78088C5.86692 5.95693 4.86633 6.95753 5.18648 7.98771C5.73274 9.07389 6.7365 12.5364 9.93588 15.1525C11.4394 16.3898 13.8189 17.6577 14.829 17.9504L14.8385 17.9652C15.8338 18.2969 16.8016 17.2572 17.3183 16.3158V16.3084C17.5476 15.853 17.4715 15.4219 17.1366 15.1398C16.5428 14.5608 15.6468 13.9216 14.9431 13.5105Z" fill="#FCE2A7"/>
<path d="M12.4559 8.57693C13.4713 8.6361 13.9637 9.16651 14.0165 10.2559C14.0355 10.6817 14.6536 10.6521 14.6346 10.2263C14.567 8.8041 13.8252 8.01165 12.4897 7.93769C12.0829 7.91339 12.0449 8.55263 12.4559 8.57693Z" fill="#FCE2A7"/>
</svg>
