<svg width="25" height="25" viewBox="0 0 25 25" fill="none" xmlns="http://www.w3.org/2000/svg">
<path d="M18.2364 14.9036L18.227 14.9817C15.9364 13.8401 15.6968 13.688 15.401 14.1317C15.1958 14.439 14.5979 15.1359 14.4177 15.3421C14.2354 15.5453 14.0542 15.5609 13.7448 15.4203C13.4323 15.264 12.4292 14.9359 11.2417 13.8734C10.3167 13.0453 9.69591 12.0297 9.51258 11.7172C9.20738 11.1901 9.84591 11.1151 10.4272 10.0151C10.5313 9.7964 10.4782 9.62453 10.4011 9.46932C10.323 9.31308 9.70112 7.78185 9.44071 7.17145C9.19071 6.56312 8.93343 6.64021 8.74072 6.64021C8.14073 6.58812 7.7022 6.59646 7.31575 6.99853C5.63453 8.84642 6.05848 10.7526 7.497 12.7797C10.324 16.4796 11.8303 17.1608 14.5844 18.1067C15.3281 18.3431 16.0062 18.3098 16.5427 18.2327C17.1406 18.1379 18.3833 17.4817 18.6426 16.7473C18.9082 16.013 18.9082 15.4036 18.8301 15.263C18.753 15.1223 18.5489 15.0442 18.2364 14.9036Z" fill="black"/>
<path d="M21.3746 3.59309C13.3654 -4.14948 0.110415 1.46605 0.105206 12.3888C0.105206 14.5721 0.677071 16.7012 1.76663 18.5814L0 25L6.59884 23.2792C14.8331 27.727 24.9954 21.8209 24.9995 12.395C24.9995 9.08675 23.7079 5.97326 21.359 3.63372L21.3746 3.59309ZM22.9183 12.3606C22.9121 20.3115 14.1841 25.2771 7.28112 21.2188L6.90613 20.9959L2.99995 22.0115L4.0468 18.2147L3.79785 17.8241C-0.497908 10.9857 4.43742 2.04833 12.5748 2.04833C15.3393 2.04833 17.934 3.12644 19.8882 5.07953C21.8413 7.01595 22.9183 9.61069 22.9183 12.3606Z" fill="black"/>
</svg>
